<svg width="48" height="48" viewBox="0 0 48 48" fill="none" xmlns="http://www.w3.org/2000/svg">
<path d="M24.0035 23.965C20.7035 7.11996 27.0795 3.91996 41.8535 6.11196C36.9265 13.502 31.0635 19.572 24.0035 23.965ZM24.0015 24.035C27.2995 40.88 20.9235 44.08 6.15046 41.888C11.0765 34.498 16.9415 28.428 24.0015 24.035ZM24.0365 23.998C40.8805 20.7 44.0805 27.076 41.8885 41.852C34.4995 36.925 28.4285 31.059 24.0375 23.998M23.9635 24C7.12046 27.3 3.92046 20.922 6.11246 6.14796C13.5015 11.074 19.5725 16.939 23.9635 24ZM16.0375 14.177C18.2515 12.407 20.8365 11.332 23.8925 11.332ZM34.0175 15.952C35.9195 18.205 37.0575 20.877 37.0575 24.057ZM31.9345 33.914C29.6885 35.79 27.2715 37.247 24.1165 37.247ZM14.0545 32.04C12.2934 29.7721 11.3396 26.9813 11.3445 24.11ZM31.9825 33.907L24.0005 41.89L22.0245 39.914M14.1215 32.011L6.11446 24L8.06446 22.05M15.9975 14.115L24.0015 6.11096L25.9655 8.07596M33.9155 16.027L41.8895 24L39.9335 25.957" fill="#2AB2FF"/>
</svg>
